<svg xmlns="http://www.w3.org/2000/svg" version="1.1" xmlns:xlink="http://www.w3.org/1999/xlink" xmlns:svgjs="http://svgjs.dev/svgjs" width="1000" height="65" viewBox="0 0 1000 65"><g transform="matrix(1,0,0,1,-0.6060445182627632,0.1330597096404489)"><svg viewBox="0 0 396 26" data-background-color="#ffffff" preserveAspectRatio="xMidYMid meet" height="65" width="1000" xmlns="http://www.w3.org/2000/svg" xmlns:xlink="http://www.w3.org/1999/xlink"><g id="tight-bounds" transform="matrix(1,0,0,1,0.23999362923206036,-0.05322332437194177)"><svg viewBox="0 0 395.52 26.10644664874386" height="26.10644664874386" width="395.52"><g><svg viewBox="0 0 395.52 26.10644664874386" height="26.10644664874386" width="395.52"><g><svg viewBox="0 0 395.52 26.10644664874386" height="26.10644664874386" width="395.52"><g id="textblocktransform"><svg viewBox="0 0 395.52 26.10644664874386" height="26.10644664874386" width="395.52" id="textblock"><g><svg viewBox="0 0 395.52 26.10644664874386" height="26.10644664874386" width="395.52"><g transform="matrix(1,0,0,1,0,0)"><svg width="395.52" viewBox="5.699999809265137 -35.29999923706055 536.4199829101562 35.599998474121094" height="26.10644664874386" data-palette-color="#636365"><g class="wordmark-text-0" data-fill-palette-color="primary" id="text-0"><path d="M27.75-18.05Q31.2-17.3 33.08-15.08 34.95-12.85 34.95-9.35L34.95-9.35Q34.95-4.85 31.63-2.43 28.3 0 21.8 0L21.8 0 5.7 0 5.7-35 20.8-35Q26.65-35 29.88-32.65 33.1-30.3 33.1-26L33.1-26Q33.1-23.1 31.68-21.08 30.25-19.05 27.75-18.05L27.75-18.05ZM20.55-31.95L9.4-31.95 9.4-19.25 20.55-19.25Q24.8-19.25 27.1-20.88 29.4-22.5 29.4-25.6L29.4-25.6Q29.4-28.7 27.1-30.33 24.8-31.95 20.55-31.95L20.55-31.95ZM21.75-3.05Q26.45-3.05 28.85-4.65 31.25-6.25 31.25-9.65L31.25-9.65Q31.25-16.2 21.75-16.2L21.75-16.2 9.4-16.2 9.4-3.05 21.75-3.05ZM71.35 0L67.3 0 59.3-11.25Q57.95-11.1 56.5-11.1L56.5-11.1 47.1-11.1 47.1 0 43.4 0 43.4-35 56.5-35Q63.2-35 67-31.8 70.8-28.6 70.8-23L70.8-23Q70.8-18.9 68.72-16.07 66.65-13.25 62.8-12L62.8-12 71.35 0ZM56.4-14.25Q61.6-14.25 64.35-16.55 67.1-18.85 67.1-23L67.1-23Q67.1-27.25 64.35-29.53 61.6-31.8 56.4-31.8L56.4-31.8 47.1-31.8 47.1-14.25 56.4-14.25ZM105.69 0L101.5-9.35 82-9.35 77.8 0 73.94 0 89.94-35 93.59-35 109.59 0 105.69 0ZM83.34-12.35L100.14-12.35 91.75-31.15 83.34-12.35ZM140.99-35L144.64-35 144.64 0 141.59 0 119.09-28.4 119.09 0 115.39 0 115.39-35 118.44-35 140.99-6.6 140.99-35ZM156.04 0L156.04-35 170.29-35Q175.84-35 180.09-32.77 184.34-30.55 186.69-26.58 189.04-22.6 189.04-17.5L189.04-17.5Q189.04-12.4 186.69-8.43 184.34-4.45 180.09-2.23 175.84 0 170.29 0L170.29 0 156.04 0ZM159.74-3.2L170.09-3.2Q174.69-3.2 178.14-5.03 181.59-6.85 183.49-10.08 185.39-13.3 185.39-17.5L185.39-17.5Q185.39-21.7 183.49-24.93 181.59-28.15 178.14-29.98 174.69-31.8 170.09-31.8L170.09-31.8 159.74-31.8 159.74-3.2ZM212.64 0.3Q207.44 0.3 203.21-2.02 198.99-4.35 196.61-8.4 194.24-12.45 194.24-17.5L194.24-17.5Q194.24-22.55 196.61-26.6 198.99-30.65 203.21-32.98 207.44-35.3 212.64-35.3L212.64-35.3Q217.84-35.3 222.01-33 226.19-30.7 228.59-26.63 230.99-22.55 230.99-17.5L230.99-17.5Q230.99-12.45 228.59-8.38 226.19-4.3 222.01-2 217.84 0.3 212.64 0.3L212.64 0.3ZM212.64-3Q216.79-3 220.14-4.88 223.49-6.75 225.39-10.08 227.29-13.4 227.29-17.5L227.29-17.5Q227.29-21.6 225.39-24.93 223.49-28.25 220.14-30.13 216.79-32 212.64-32L212.64-32Q208.49-32 205.11-30.13 201.74-28.25 199.81-24.93 197.89-21.6 197.89-17.5L197.89-17.5Q197.89-13.4 199.81-10.08 201.74-6.75 205.11-4.88 208.49-3 212.64-3L212.64-3ZM264.89-35L268.54-35 268.54 0 265.49 0 242.99-28.4 242.99 0 239.29 0 239.29-35 242.34-35 264.89-6.6 264.89-35Z" fill="#636365" data-fill-palette-color="primary"></path><path d="M312.94-35L316.59-35 316.59 0 312.94 0 312.94-16.15 291.04-16.15 291.04 0 287.34 0 287.34-35 291.04-35 291.04-19.4 312.94-19.4 312.94-35ZM354.14 0L349.94-9.35 330.44-9.35 326.24 0 322.39 0 338.39-35 342.04-35 358.04 0 354.14 0ZM331.79-12.35L348.59-12.35 340.19-31.15 331.79-12.35ZM389.83-35L375.83-12.1 375.83 0 372.18 0 372.18-12.1 358.18-35 362.13-35 374.13-15.35 386.13-35 389.83-35ZM395.58 0L395.58-35 399.28-35 399.28-3.2 418.88-3.2 418.88 0 395.58 0ZM425.03 0L425.03-35 428.73-35 428.73 0 425.03 0ZM465.73-35L469.38-35 469.38 0 466.33 0 443.83-28.4 443.83 0 440.13 0 440.13-35 443.18-35 465.73-6.6 465.73-35ZM505.42-5.7L505.42-17.5 508.97-17.5 508.97-4.15Q506.52-2 503.17-0.85 499.82 0.3 496.12 0.3L496.12 0.3Q490.87 0.3 486.67-2 482.47-4.3 480.07-8.38 477.67-12.45 477.67-17.5L477.67-17.5Q477.67-22.55 480.07-26.63 482.47-30.7 486.67-33 490.87-35.3 496.17-35.3L496.17-35.3Q500.17-35.3 503.52-34.02 506.87-32.75 509.17-30.25L509.17-30.25 506.87-27.9Q502.72-32 496.32-32L496.32-32Q492.07-32 488.65-30.13 485.22-28.25 483.27-24.93 481.32-21.6 481.32-17.5L481.32-17.5Q481.32-13.4 483.27-10.1 485.22-6.8 488.62-4.9 492.02-3 496.27-3L496.27-3Q501.67-3 505.42-5.7L505.42-5.7ZM529.07 0.3Q525.17 0.3 521.6-0.95 518.02-2.2 516.07-4.25L516.07-4.25 517.52-7.1Q519.42-5.2 522.57-4.03 525.72-2.85 529.07-2.85L529.07-2.85Q533.77-2.85 536.12-4.58 538.47-6.3 538.47-9.05L538.47-9.05Q538.47-11.15 537.2-12.4 535.92-13.65 534.07-14.33 532.22-15 528.92-15.8L528.92-15.8Q524.97-16.8 522.62-17.73 520.27-18.65 518.6-20.55 516.92-22.45 516.92-25.7L516.92-25.7Q516.92-28.35 518.32-30.53 519.72-32.7 522.62-34 525.52-35.3 529.82-35.3L529.82-35.3Q532.82-35.3 535.7-34.48 538.57-33.65 540.67-32.2L540.67-32.2 539.42-29.25Q537.22-30.7 534.72-31.43 532.22-32.15 529.82-32.15L529.82-32.15Q525.22-32.15 522.9-30.38 520.57-28.6 520.57-25.8L520.57-25.8Q520.57-23.7 521.85-22.43 523.12-21.15 525.05-20.48 526.97-19.8 530.22-19L530.22-19Q534.07-18.05 536.45-17.13 538.82-16.2 540.47-14.33 542.12-12.45 542.12-9.25L542.12-9.25Q542.12-6.6 540.7-4.42 539.27-2.25 536.32-0.98 533.37 0.3 529.07 0.3L529.07 0.3Z" fill="#89939e" data-fill-palette-color="secondary"></path></g></svg></g></svg></g></svg></g></svg></g></svg></g><defs></defs></svg><rect width="395.52" height="26.10644664874386" fill="none" stroke="none" visibility="hidden"></rect></g></svg></g></svg>